<svg version="1.1" xmlns="http://www.w3.org/2000/svg" viewBox="0 0 349 329.9999849999999" width="349" height="329.9999849999999">
  <!-- svg-source:excalidraw -->
  
  <defs>
    <style class="style-fonts">
      
    </style>
    
  </defs>
  <g stroke-linecap="round" transform="translate(10 10) rotate(0 164.5 154.99999249999996)"><path d="M32 0 C94.57 0.31, 161.24 -0.01, 297 0 C321.72 -3.17, 327.61 12.25, 329 32 C330.34 103.17, 329.17 177.97, 329 278 C327.68 300.61, 318.23 306.97, 297 310 C242.46 308.01, 184.52 310.23, 32 310 C12.38 311.48, 1.15 301.56, 0 278 C-4.5 204.46, -0.73 134.43, 0 32 C2.15 7.54, 11.26 -3.11, 32 0" stroke="none" stroke-width="0" fill="#a5d8ff"></path><path d="M32 0 C137.22 1.62, 239.83 0.04, 297 0 M32 0 C112.26 -1.2, 191.41 -0.64, 297 0 M297 0 C316.72 1.69, 327.56 10.7, 329 32 M297 0 C317.07 -0.31, 331.25 11.01, 329 32 M329 32 C328.1 122.52, 330.14 215.02, 329 278 M329 32 C327.48 97.86, 327.49 164.28, 329 278 M329 278 C327.18 300.42, 318.15 309.9, 297 310 M329 278 C327.46 297.36, 318.14 310.6, 297 310 M297 310 C192.14 311.83, 85.18 310.94, 32 310 M297 310 C241.55 310.83, 187.24 311.46, 32 310 M32 310 C11.21 311.6, -0.62 300.64, 0 278 M32 310 C9.71 308.34, 1.95 297.33, 0 278 M0 278 C2.07 197.03, 1.47 115.6, 0 32 M0 278 C-2.01 211.14, -1.63 143.37, 0 32 M0 32 C0.95 12.37, 9.8 1.14, 32 0 M0 32 C0.09 8.91, 11.07 -1.01, 32 0" stroke="rgb(43, 4, 4)" stroke-width="2" fill="none"></path></g><g stroke-linecap="round" transform="translate(62.99993900000004 69.99995399999989) rotate(0 38.5 44.00001550000002)"><path d="M19.25 0 C30.37 1.35, 46.97 1.9, 57.75 0 C67.59 -0.96, 77.05 3.57, 77 19.25 C74.85 32.73, 76.04 38.41, 77 68.75 C78.4 80.84, 68.62 85.8, 57.75 88 C51.78 85.82, 37.91 86.41, 19.25 88 C5.51 85.38, -3.27 83.68, 0 68.75 C2.01 51.45, -2.67 35.29, 0 19.25 C2.07 4.06, 8.95 3.55, 19.25 0" stroke="none" stroke-width="0" fill="#ffc9c9"></path><path d="M19.25 0 C32.69 0.43, 42.43 -1.7, 57.75 0 M19.25 0 C27.91 -0.2, 35.59 -0.88, 57.75 0 M57.75 0 C72.01 -1.37, 78.99 6.77, 77 19.25 M57.75 0 C71.22 -1.38, 75.09 6.92, 77 19.25 M77 19.25 C78.45 39.45, 77.53 57.76, 77 68.75 M77 19.25 C77.7 36.26, 77.94 53.06, 77 68.75 M77 68.75 C77.44 82.62, 70.52 88.27, 57.75 88 M77 68.75 C75.91 83.03, 69.58 85.71, 57.75 88 M57.75 88 C50.57 87.93, 43.78 87.01, 19.25 88 M57.75 88 C48.52 87.09, 38.9 87.74, 19.25 88 M19.25 88 C5.66 89.97, 1.06 82.72, 0 68.75 M19.25 88 C7.56 88.87, 0.44 82.18, 0 68.75 M0 68.75 C1.08 52.5, 0.01 36.84, 0 19.25 M0 68.75 C-0.52 49.2, 0 30.49, 0 19.25 M0 19.25 C-1.18 5.58, 7.55 0.05, 19.25 0 M0 19.25 C-0.51 7.76, 5.65 2.29, 19.25 0" stroke="rgb(43, 4, 4)" stroke-width="8.5" fill="none"></path></g><g stroke-linecap="round" transform="translate(64 193.99998499999992) rotate(0 42 51)"><path d="M53.75 13 C63.02 23.72, 69.14 29.82, 73.25 39 C85.68 53.84, 86.2 55.36, 73.25 65 C67.92 70.44, 61.75 79.17, 53.75 89 C45.59 101, 42.83 99.91, 32.25 89 C25.47 81.88, 18.09 72.71, 10.75 65 C-1.81 54.42, -0.43 54.26, 10.75 39 C18.27 32.52, 28.88 16.52, 32.25 13 C42.13 2.45, 40.67 3.08, 53.75 13" stroke="none" stroke-width="0" fill="#1971c2"></path><path d="M53.75 13 C58.82 22.41, 67.01 29.82, 73.25 39 M53.75 13 C61.54 22.29, 68.44 32.53, 73.25 39 M73.25 39 C85.16 50.82, 83.16 53.13, 73.25 65 M73.25 39 C84.06 51.49, 85.34 51.23, 73.25 65 M73.25 65 C67.27 72.71, 58.91 83.54, 53.75 89 M73.25 65 C65.88 73, 57.94 81.8, 53.75 89 M53.75 89 C42.87 101.22, 44.27 101.88, 32.25 89 M53.75 89 C40.95 102.9, 42.52 100.74, 32.25 89 M32.25 89 C26.03 85.04, 21.16 76.59, 10.75 65 M32.25 89 C25.64 83, 21.41 76.22, 10.75 65 M10.75 65 C1.24 53.23, 0.34 50.63, 10.75 39 M10.75 65 C1.5 53.32, -1.5 53.62, 10.75 39 M10.75 39 C19.18 30.07, 29.77 17.31, 32.25 13 M10.75 39 C15.66 32.1, 21.96 25.09, 32.25 13 M32.25 13 C44.62 0, 43.08 1.94, 53.75 13 M32.25 13 C42.77 1.45, 42.01 -2.19, 53.75 13" stroke="rgb(43, 4, 4)" stroke-width="9.5" fill="none"></path></g><g stroke-linecap="round"><g transform="translate(99 33.999984999999924) rotate(0 108 99)"><path d="M1.14 -1.08 C30.89 2.25, 141.73 -13.54, 177.42 19.48 C213.1 52.5, 208.91 167.22, 215.27 197.03 M0.27 0.97 C30.01 4.49, 140.43 -12.07, 176.69 20.74 C212.94 53.55, 211.29 168.03, 217.79 197.83" stroke="rgb(43, 4, 4)" stroke-width="5.5" fill="none"></path></g><g transform="translate(99 33.999984999999924) rotate(0 108 99)"><path d="M206.76 175.4 C207.15 180.63, 210.36 183.36, 217.79 197.83 M206.76 175.4 C208.78 180.92, 211.71 184.68, 217.79 197.83" stroke="rgb(43, 4, 4)" stroke-width="5.5" fill="none"></path></g><g transform="translate(99 33.999984999999924) rotate(0 108 99)"><path d="M223.76 173.56 C220.62 179.33, 220.32 182.44, 217.79 197.83 M223.76 173.56 C222.05 179.53, 221.26 183.69, 217.79 197.83" stroke="rgb(43, 4, 4)" stroke-width="5.5" fill="none"></path></g></g><mask></mask><g stroke-linecap="round" transform="translate(180.99993900000004 67.00003000000015) rotate(0 41.5 46.99999249999996)"><path d="M49.87 1.27 C56.87 2.43, 64.98 7.85, 70.5 13.9 C76.02 19.94, 81.35 29.38, 83.02 37.57 C84.69 45.76, 83.39 55.24, 80.52 63.02 C77.65 70.81, 71.76 78.99, 65.82 84.3 C59.87 89.61, 52.35 94.05, 44.85 94.87 C37.35 95.68, 27.36 93.48, 20.81 89.19 C14.26 84.89, 8.89 76.85, 5.55 69.1 C2.21 61.35, 0.37 50.89, 0.77 42.67 C1.18 34.45, 3.52 26.4, 7.98 19.76 C12.44 13.13, 20.1 5.75, 27.52 2.86 C34.94 -0.03, 48.29 2.27, 52.52 2.41 C56.74 2.55, 52.99 3.16, 52.87 3.71 M24.3 4.53 C30.55 0.99, 40.99 0.57, 48.36 1.98 C55.73 3.39, 63.07 7.57, 68.52 13 C73.97 18.42, 78.84 26.54, 81.06 34.54 C83.29 42.54, 84.24 52.96, 81.87 60.99 C79.5 69.03, 72.82 77.21, 66.86 82.75 C60.9 88.3, 53.3 93.13, 46.11 94.27 C38.91 95.4, 30.25 93.32, 23.67 89.57 C17.09 85.82, 10.76 79.04, 6.63 71.76 C2.51 64.47, -1.26 54.08, -1.09 45.86 C-0.92 37.64, 3.51 29.19, 7.64 22.45 C11.78 15.7, 20.7 8.31, 23.73 5.4 C26.75 2.49, 25.45 4.65, 25.8 4.99" stroke="none" stroke-width="0" fill="#1e1e1e"></path><path d="M26.14 2.44 C32.58 -1.1, 42.38 -0.8, 49.73 1.1 C57.09 3.01, 64.84 7.83, 70.3 13.85 C75.76 19.87, 80.95 29.08, 82.5 37.24 C84.05 45.39, 82.32 54.86, 79.59 62.77 C76.86 70.69, 71.83 79.49, 66.11 84.71 C60.39 89.94, 52.77 93.49, 45.29 94.13 C37.8 94.77, 27.72 92.52, 21.2 88.54 C14.68 84.55, 9.7 77.78, 6.14 70.23 C2.59 62.67, -0.35 51.79, -0.12 43.2 C0.11 34.62, 2.52 25.44, 7.52 18.71 C12.52 11.97, 25.65 5.53, 29.88 2.82 C34.1 0.1, 32.71 1.66, 32.88 2.41 M44.22 0.22 C51.31 0.15, 60.04 4.72, 66.02 10.16 C72 15.6, 77.29 25.07, 80.09 32.84 C82.89 40.61, 84.26 48.6, 82.8 56.78 C81.34 64.97, 76.97 76.12, 71.32 81.94 C65.66 87.76, 56.46 90.26, 48.85 91.69 C41.24 93.13, 32.62 93.39, 25.65 90.53 C18.68 87.68, 11.44 81.56, 7.03 74.58 C2.63 67.6, -0.71 57.1, -0.78 48.68 C-0.84 40.27, 2.96 31.16, 6.63 24.09 C10.31 17.03, 14.64 10.19, 21.28 6.3 C27.92 2.41, 42.37 1.57, 46.5 0.75 C50.63 -0.06, 46.16 0.75, 46.05 1.39" stroke="rgb(43, 4, 4)" stroke-width="9.5" fill="none"></path></g><g stroke-linecap="round" transform="translate(196 210.99995399999943) rotate(0 34.50003049999998 36.50001549999979)"><path d="M17.25 0 C25.3 1.88, 32.52 -3.62, 51.75 0 C61.67 -0.9, 68.62 5.64, 69 17.25 C70.89 28.04, 72.15 39.81, 69 55.75 C68.21 64.91, 60.14 74.56, 51.75 73 C40.75 69.59, 32.97 71.55, 17.25 73 C2.62 69.69, 3.06 65.57, 0 55.75 C-2.54 44.44, 0.78 35.75, 0 17.25 C2.59 4.21, 6.18 -1.11, 17.25 0" stroke="none" stroke-width="0" fill="#1e1e1e"></path><path d="M17.25 0 C26.9 1.91, 39.11 -0.08, 51.75 0 M17.25 0 C23.65 -0.95, 31.11 -0.93, 51.75 0 M51.75 0 C64.3 -0.74, 69.27 7.04, 69 17.25 M51.75 0 C62.05 1.82, 68.18 6.79, 69 17.25 M69 17.25 C68.05 28.13, 68.85 36.91, 69 55.75 M69 17.25 C68.5 31.83, 68.52 44.31, 69 55.75 M69 55.75 C68.61 65.69, 64.12 71.91, 51.75 73 M69 55.75 C69.23 67.21, 64.47 73.42, 51.75 73 M51.75 73 C40.22 74.17, 27.79 74.28, 17.25 73 M51.75 73 C42.02 72.48, 32.98 73.25, 17.25 73 M17.25 73 C7.39 72.5, 0.88 67.8, 0 55.75 M17.25 73 C7.72 75.27, -1.11 67.76, 0 55.75 M0 55.75 C-0.68 44.3, 1.2 31.09, 0 17.25 M0 55.75 C0.1 41.12, 0.25 27.86, 0 17.25 M0 17.25 C0.36 5.58, 6.41 1.23, 17.25 0 M0 17.25 C-1.86 4.54, 8.03 -0.68, 17.25 0" stroke="rgb(43, 4, 4)" stroke-width="10.5" fill="none"></path></g></svg>