<svg version="1.1" xmlns="http://www.w3.org/2000/svg" viewBox="0 0 349 329.99998474121094" width="349" height="329.99998474121094">
  <!-- svg-source:excalidraw -->
  
  <defs>
    <style class="style-fonts">
      
    </style>
    
  </defs>
  <g stroke-linecap="round" transform="translate(10 10) rotate(0 164.5 154.99999237060547)"><path d="M32 0 C137.22 1.62, 239.83 0.04, 297 0 M32 0 C112.26 -1.2, 191.41 -0.64, 297 0 M297 0 C316.72 1.69, 327.56 10.7, 329 32 M297 0 C317.07 -0.31, 331.25 11.01, 329 32 M329 32 C328.1 122.52, 330.14 215.02, 329 278 M329 32 C327.48 97.86, 327.49 164.28, 329 278 M329 278 C327.18 300.42, 318.15 309.9, 297 310 M329 278 C327.46 297.36, 318.14 310.6, 297 310 M297 310 C192.14 311.83, 85.18 310.94, 32 310 M297 310 C241.55 310.83, 187.24 311.46, 32 310 M32 310 C11.21 311.6, -0.62 300.64, 0 278 M32 310 C9.71 308.34, 1.95 297.33, 0 278 M0 278 C2.07 197.03, 1.47 115.6, 0 32 M0 278 C-2.01 211.14, -1.63 143.37, 0 32 M0 32 C0.95 12.37, 9.8 1.14, 32 0 M0 32 C0.09 8.91, 11.07 -1.01, 32 0" stroke="rgb(43, 4, 4)" stroke-width="2" fill="none"></path></g><g stroke-linecap="round" transform="translate(69 61.99998474121094) rotate(0 35 40)"><path d="M17.5 0 C29.88 0.42, 38.56 -1.71, 52.5 0 M17.5 0 C25.41 -0.2, 32.34 -0.88, 52.5 0 M52.5 0 C65.59 -1.37, 71.99 6.19, 70 17.5 M52.5 0 C64.81 -1.38, 68.09 6.34, 70 17.5 M70 17.5 C71.4 36.02, 70.49 52.66, 70 62.5 M70 17.5 C70.65 32.95, 70.9 48.19, 70 62.5 M70 62.5 C70.44 75.2, 64.1 80.27, 52.5 80 M70 62.5 C68.91 75.62, 63.16 77.71, 52.5 80 M52.5 80 C46.03 79.91, 39.94 78.99, 17.5 80 M52.5 80 C44.11 79.08, 35.34 79.74, 17.5 80 M17.5 80 C5.08 81.97, 1.06 75.3, 0 62.5 M17.5 80 C6.97 80.87, 0.44 74.77, 0 62.5 M0 62.5 C1.06 47.77, -0.01 33.63, 0 17.5 M0 62.5 C-0.51 44.72, 0.01 27.77, 0 17.5 M0 17.5 C-1.18 4.99, 6.97 0.05, 17.5 0 M0 17.5 C-0.51 7.18, 5.06 2.29, 17.5 0" stroke="rgb(43, 4, 4)" stroke-width="2" fill="none"></path></g><g stroke-linecap="round" transform="translate(69 193.99998474121094) rotate(0 42 51)"><path d="M53.75 13 C58.82 22.41, 67.01 29.82, 73.25 39 M53.75 13 C61.54 22.29, 68.44 32.53, 73.25 39 M73.25 39 C85.16 50.82, 83.16 53.13, 73.25 65 M73.25 39 C84.06 51.49, 85.34 51.23, 73.25 65 M73.25 65 C67.27 72.71, 58.91 83.54, 53.75 89 M73.25 65 C65.88 73, 57.94 81.8, 53.75 89 M53.75 89 C42.87 101.22, 44.27 101.88, 32.25 89 M53.75 89 C40.95 102.9, 42.52 100.74, 32.25 89 M32.25 89 C26.03 85.04, 21.16 76.59, 10.75 65 M32.25 89 C25.64 83, 21.41 76.22, 10.75 65 M10.75 65 C1.24 53.23, 0.34 50.63, 10.75 39 M10.75 65 C1.5 53.32, -1.5 53.62, 10.75 39 M10.75 39 C19.18 30.07, 29.77 17.31, 32.25 13 M10.75 39 C15.66 32.1, 21.96 25.09, 32.25 13 M32.25 13 C44.62 0, 43.08 1.94, 53.75 13 M32.25 13 C42.77 1.45, 42.01 -2.19, 53.75 13" stroke="rgb(43, 4, 4)" stroke-width="2" fill="none"></path></g><g stroke-linecap="round"><g transform="translate(99 33.99998474121094) rotate(0 108 99)"><path d="M-0.67 0.89 C28.89 4.04, 140.96 -13.48, 177.2 19.54 C213.44 52.56, 210.29 169.38, 216.79 198.99 M1.18 0.32 C30.62 3.56, 140.48 -11.97, 176.36 20.84 C212.24 53.64, 209.74 167.66, 216.44 197.16" stroke="rgb(43, 4, 4)" stroke-width="2" fill="none"></path></g><g transform="translate(99 33.99998474121094) rotate(0 108 99)"><path d="M205.42 174.72 C210.19 181.55, 211.09 188.95, 216.44 197.16 M205.42 174.72 C209.81 184.23, 213.7 191.31, 216.44 197.16" stroke="rgb(43, 4, 4)" stroke-width="2" fill="none"></path></g><g transform="translate(99 33.99998474121094) rotate(0 108 99)"><path d="M222.42 172.89 C222.34 180.15, 218.36 188.08, 216.44 197.16 M222.42 172.89 C220.32 182.99, 217.71 190.77, 216.44 197.16" stroke="rgb(43, 4, 4)" stroke-width="2" fill="none"></path></g></g><mask></mask><g stroke-linecap="round" transform="translate(193.99993896484375 67.00003051757812) rotate(0 35 41.99999237060547)"><path d="M21.95 2.11 C27.87 -1.26, 37.17 -0.75, 43.83 1.56 C50.49 3.87, 57.47 9.49, 61.9 15.97 C66.34 22.45, 70.21 32.35, 70.46 40.45 C70.71 48.56, 67.32 57.77, 63.4 64.61 C59.49 71.46, 53.14 78.49, 46.97 81.52 C40.8 84.55, 33.05 84.98, 26.4 82.8 C19.75 80.63, 11.33 74.85, 7.09 68.47 C2.86 62.08, 1.26 52.87, 0.99 44.51 C0.73 36.14, 1.5 25.5, 5.51 18.28 C9.51 11.06, 21.16 3.81, 25.03 1.18 C28.89 -1.45, 28.58 1.66, 28.72 2.49 M28.32 1.81 C34.2 -0.06, 43.24 0.98, 49.32 4.46 C55.41 7.95, 61.56 15.23, 64.82 22.72 C68.09 30.2, 69.57 41.49, 68.91 49.37 C68.25 57.26, 65.38 64.24, 60.89 70.05 C56.4 75.85, 48.95 82.9, 41.96 84.23 C34.97 85.56, 25.34 81.86, 18.95 78.02 C12.56 74.19, 6.82 68.22, 3.64 61.24 C0.46 54.26, -1.1 44.32, -0.15 36.13 C0.79 27.94, 4.23 17.91, 9.31 12.11 C14.39 6.31, 27.2 2.92, 30.33 1.33 C33.46 -0.27, 28.02 1.9, 28.09 2.55" stroke="rgb(43, 4, 4)" stroke-width="2" fill="none"></path></g><g stroke-linecap="round" transform="translate(196 210.9999542236328) rotate(0 34.500030517578125 36.50001525878906)"><path d="M17.25 0 C26.9 1.91, 39.11 -0.08, 51.75 0 M17.25 0 C23.65 -0.95, 31.11 -0.93, 51.75 0 M51.75 0 C64.3 -0.74, 69.27 7.04, 69 17.25 M51.75 0 C62.05 1.82, 68.18 6.79, 69 17.25 M69 17.25 C68.05 28.13, 68.85 36.91, 69 55.75 M69 17.25 C68.5 31.83, 68.52 44.31, 69 55.75 M69 55.75 C68.61 65.69, 64.12 71.91, 51.75 73 M69 55.75 C69.23 67.21, 64.47 73.42, 51.75 73 M51.75 73 C40.22 74.17, 27.79 74.28, 17.25 73 M51.75 73 C42.02 72.48, 32.98 73.25, 17.25 73 M17.25 73 C7.39 72.5, 0.88 67.8, 0 55.75 M17.25 73 C7.72 75.27, -1.11 67.76, 0 55.75 M0 55.75 C-0.68 44.3, 1.2 31.09, 0 17.25 M0 55.75 C0.1 41.12, 0.25 27.86, 0 17.25 M0 17.25 C0.36 5.58, 6.41 1.23, 17.25 0 M0 17.25 C-1.86 4.54, 8.03 -0.68, 17.25 0" stroke="rgb(43, 4, 4)" stroke-width="2" fill="none"></path></g></svg>